<svg width="191" height="59" viewBox="0 0 191 59" fill="none" xmlns="http://www.w3.org/2000/svg">
<rect width="191" height="59" rx="5" fill="black"/>
<path d="M93.4091 26V14.3636H97.3409C98.2538 14.3636 99 14.5284 99.5795 14.858C100.163 15.1837 100.595 15.625 100.875 16.1818C101.155 16.7386 101.295 17.3598 101.295 18.0455C101.295 18.7311 101.155 19.3542 100.875 19.9148C100.598 20.4754 100.17 20.9223 99.5909 21.2557C99.0114 21.5852 98.2689 21.75 97.3636 21.75H94.5455V20.5H97.3182C97.9432 20.5 98.4451 20.392 98.8239 20.1761C99.2027 19.9602 99.4773 19.6686 99.6477 19.3011C99.822 18.9299 99.9091 18.5114 99.9091 18.0455C99.9091 17.5795 99.822 17.1629 99.6477 16.7955C99.4773 16.428 99.2008 16.1402 98.8182 15.9318C98.4356 15.7197 97.928 15.6136 97.2955 15.6136H94.8182V26H93.4091ZM106.835 26.1818C106.047 26.1818 105.356 25.9943 104.761 25.6193C104.17 25.2443 103.708 24.7197 103.375 24.0455C103.045 23.3712 102.881 22.5833 102.881 21.6818C102.881 20.7727 103.045 19.9792 103.375 19.3011C103.708 18.6231 104.17 18.0966 104.761 17.7216C105.356 17.3466 106.047 17.1591 106.835 17.1591C107.623 17.1591 108.313 17.3466 108.903 17.7216C109.498 18.0966 109.96 18.6231 110.29 19.3011C110.623 19.9792 110.79 20.7727 110.79 21.6818C110.79 22.5833 110.623 23.3712 110.29 24.0455C109.96 24.7197 109.498 25.2443 108.903 25.6193C108.313 25.9943 107.623 26.1818 106.835 26.1818ZM106.835 24.9773C107.434 24.9773 107.926 24.8239 108.312 24.517C108.699 24.2102 108.985 23.8068 109.17 23.3068C109.356 22.8068 109.449 22.2652 109.449 21.6818C109.449 21.0985 109.356 20.5549 109.17 20.0511C108.985 19.5473 108.699 19.1402 108.312 18.8295C107.926 18.5189 107.434 18.3636 106.835 18.3636C106.237 18.3636 105.744 18.5189 105.358 18.8295C104.972 19.1402 104.686 19.5473 104.5 20.0511C104.314 20.5549 104.222 21.0985 104.222 21.6818C104.222 22.2652 104.314 22.8068 104.5 23.3068C104.686 23.8068 104.972 24.2102 105.358 24.517C105.744 24.8239 106.237 24.9773 106.835 24.9773ZM114.517 26L111.858 17.2727H113.267L115.153 23.9545H115.244L117.108 17.2727H118.54L120.381 23.9318H120.472L122.358 17.2727H123.767L121.108 26H119.79L117.881 19.2955H117.744L115.835 26H114.517ZM128.902 26.1818C128.061 26.1818 127.336 25.9962 126.726 25.625C126.12 25.25 125.652 24.7273 125.322 24.0568C124.997 23.3826 124.834 22.5985 124.834 21.7045C124.834 20.8106 124.997 20.0227 125.322 19.3409C125.652 18.6553 126.11 18.1212 126.697 17.7386C127.288 17.3523 127.978 17.1591 128.766 17.1591C129.22 17.1591 129.669 17.2348 130.112 17.3864C130.555 17.5379 130.959 17.7841 131.322 18.125C131.686 18.4621 131.976 18.9091 132.192 19.4659C132.408 20.0227 132.516 20.7083 132.516 21.5227V22.0909H125.788V20.9318H131.152C131.152 20.4394 131.054 20 130.857 19.6136C130.663 19.2273 130.387 18.9223 130.027 18.6989C129.671 18.4754 129.25 18.3636 128.766 18.3636C128.232 18.3636 127.769 18.4962 127.379 18.7614C126.993 19.0227 126.696 19.3636 126.487 19.7841C126.279 20.2045 126.175 20.6553 126.175 21.1364V21.9091C126.175 22.5682 126.288 23.1269 126.516 23.5852C126.747 24.0398 127.067 24.3864 127.476 24.625C127.885 24.8598 128.36 24.9773 128.902 24.9773C129.254 24.9773 129.572 24.928 129.857 24.8295C130.144 24.7273 130.393 24.5758 130.601 24.375C130.809 24.1705 130.97 23.9167 131.084 23.6136L132.379 23.9773C132.243 24.4167 132.014 24.803 131.692 25.1364C131.37 25.4659 130.972 25.7235 130.499 25.9091C130.025 26.0909 129.493 26.1818 128.902 26.1818ZM134.555 26V17.2727H135.851V18.5909H135.942C136.101 18.1591 136.389 17.8087 136.805 17.5398C137.222 17.2708 137.692 17.1364 138.214 17.1364C138.313 17.1364 138.436 17.1383 138.584 17.142C138.732 17.1458 138.843 17.1515 138.919 17.1591V18.5227C138.874 18.5114 138.769 18.4943 138.607 18.4716C138.447 18.4451 138.279 18.4318 138.101 18.4318C137.677 18.4318 137.298 18.5208 136.964 18.6989C136.635 18.8731 136.374 19.1155 136.18 19.4261C135.991 19.733 135.896 20.0833 135.896 20.4773V26H134.555ZM141.849 20.75V26H140.509V14.3636H141.849V18.6364H141.963C142.168 18.1856 142.474 17.8277 142.884 17.5625C143.296 17.2936 143.846 17.1591 144.531 17.1591C145.126 17.1591 145.647 17.2784 146.094 17.517C146.541 17.7519 146.887 18.1136 147.134 18.6023C147.384 19.0871 147.509 19.7045 147.509 20.4545V26H146.168V20.5455C146.168 19.8523 145.988 19.3163 145.628 18.9375C145.272 18.5549 144.777 18.3636 144.145 18.3636C143.705 18.3636 143.312 18.4564 142.963 18.642C142.618 18.8277 142.346 19.0985 142.145 19.4545C141.948 19.8106 141.849 20.2424 141.849 20.75ZM153.507 26.1818C152.719 26.1818 152.028 25.9943 151.433 25.6193C150.842 25.2443 150.38 24.7197 150.047 24.0455C149.717 23.3712 149.553 22.5833 149.553 21.6818C149.553 20.7727 149.717 19.9792 150.047 19.3011C150.38 18.6231 150.842 18.0966 151.433 17.7216C152.028 17.3466 152.719 17.1591 153.507 17.1591C154.295 17.1591 154.984 17.3466 155.575 17.7216C156.17 18.0966 156.632 18.6231 156.962 19.3011C157.295 19.9792 157.462 20.7727 157.462 21.6818C157.462 22.5833 157.295 23.3712 156.962 24.0455C156.632 24.7197 156.17 25.2443 155.575 25.6193C154.984 25.9943 154.295 26.1818 153.507 26.1818ZM153.507 24.9773C154.106 24.9773 154.598 24.8239 154.984 24.517C155.371 24.2102 155.657 23.8068 155.842 23.3068C156.028 22.8068 156.121 22.2652 156.121 21.6818C156.121 21.0985 156.028 20.5549 155.842 20.0511C155.657 19.5473 155.371 19.1402 154.984 18.8295C154.598 18.5189 154.106 18.3636 153.507 18.3636C152.909 18.3636 152.416 18.5189 152.03 18.8295C151.643 19.1402 151.357 19.5473 151.172 20.0511C150.986 20.5549 150.893 21.0985 150.893 21.6818C150.893 22.2652 150.986 22.8068 151.172 23.3068C151.357 23.8068 151.643 24.2102 152.03 24.517C152.416 24.8239 152.909 24.9773 153.507 24.9773ZM165.009 22.4318V17.2727H166.349V26H165.009V24.5227H164.918C164.713 24.9659 164.395 25.3428 163.963 25.6534C163.531 25.9602 162.986 26.1136 162.327 26.1136C161.781 26.1136 161.296 25.9943 160.872 25.7557C160.448 25.5133 160.115 25.1496 159.872 24.6648C159.63 24.1761 159.509 23.5606 159.509 22.8182V17.2727H160.849V22.7273C160.849 23.3636 161.027 23.8712 161.384 24.25C161.743 24.6288 162.202 24.8182 162.759 24.8182C163.092 24.8182 163.431 24.733 163.776 24.5625C164.124 24.392 164.416 24.1307 164.651 23.7784C164.889 23.4261 165.009 22.9773 165.009 22.4318ZM174.987 19.2273L173.783 19.5682C173.707 19.3674 173.595 19.1723 173.447 18.983C173.304 18.7898 173.107 18.6307 172.857 18.5057C172.607 18.3807 172.286 18.3182 171.896 18.3182C171.362 18.3182 170.917 18.4413 170.561 18.6875C170.209 18.9299 170.033 19.2386 170.033 19.6136C170.033 19.947 170.154 20.2102 170.396 20.4034C170.639 20.5966 171.018 20.7576 171.533 20.8864L172.828 21.2045C173.608 21.3939 174.19 21.6837 174.572 22.0739C174.955 22.4602 175.146 22.9583 175.146 23.5682C175.146 24.0682 175.002 24.5152 174.714 24.9091C174.43 25.303 174.033 25.6136 173.521 25.8409C173.01 26.0682 172.415 26.1818 171.737 26.1818C170.847 26.1818 170.11 25.9886 169.527 25.6023C168.944 25.2159 168.574 24.6515 168.419 23.9091L169.692 23.5909C169.813 24.0606 170.042 24.4129 170.379 24.6477C170.72 24.8826 171.165 25 171.714 25C172.339 25 172.836 24.8674 173.203 24.6023C173.574 24.3333 173.76 24.0114 173.76 23.6364C173.76 23.3333 173.654 23.0795 173.442 22.875C173.23 22.6667 172.904 22.5114 172.464 22.4091L171.01 22.0682C170.211 21.8788 169.624 21.5852 169.249 21.1875C168.877 20.786 168.692 20.2841 168.692 19.6818C168.692 19.1894 168.83 18.7538 169.107 18.375C169.387 17.9962 169.768 17.6989 170.249 17.483C170.733 17.267 171.283 17.1591 171.896 17.1591C172.76 17.1591 173.438 17.3485 173.93 17.7273C174.427 18.1061 174.779 18.6061 174.987 19.2273ZM180.824 26.1818C179.983 26.1818 179.258 25.9962 178.648 25.625C178.042 25.25 177.574 24.7273 177.244 24.0568C176.919 23.3826 176.756 22.5985 176.756 21.7045C176.756 20.8106 176.919 20.0227 177.244 19.3409C177.574 18.6553 178.032 18.1212 178.619 17.7386C179.21 17.3523 179.9 17.1591 180.688 17.1591C181.142 17.1591 181.591 17.2348 182.034 17.3864C182.477 17.5379 182.881 17.7841 183.244 18.125C183.608 18.4621 183.898 18.9091 184.114 19.4659C184.33 20.0227 184.438 20.7083 184.438 21.5227V22.0909H177.71V20.9318H183.074C183.074 20.4394 182.975 20 182.778 19.6136C182.585 19.2273 182.309 18.9223 181.949 18.6989C181.593 18.4754 181.172 18.3636 180.688 18.3636C180.153 18.3636 179.691 18.4962 179.301 18.7614C178.915 19.0227 178.617 19.3636 178.409 19.7841C178.201 20.2045 178.097 20.6553 178.097 21.1364V21.9091C178.097 22.5682 178.21 23.1269 178.438 23.5852C178.669 24.0398 178.989 24.3864 179.398 24.625C179.807 24.8598 180.282 24.9773 180.824 24.9773C181.176 24.9773 181.494 24.928 181.778 24.8295C182.066 24.7273 182.314 24.5758 182.523 24.375C182.731 24.1705 182.892 23.9167 183.006 23.6136L184.301 23.9773C184.165 24.4167 183.936 24.803 183.614 25.1364C183.292 25.4659 182.894 25.7235 182.42 25.9091C181.947 26.0909 181.415 26.1818 180.824 26.1818Z" fill="white"/>
<path d="M144.969 41V33H149.766V33.8594H145.938V36.5625H149.406V37.4219H145.938V41H144.969ZM154.705 38.5469V35H155.627V41H154.705V39.9844H154.643C154.502 40.2891 154.283 40.5482 153.986 40.7617C153.689 40.9727 153.314 41.0781 152.861 41.0781C152.486 41.0781 152.153 40.9961 151.861 40.832C151.57 40.6654 151.34 40.4154 151.174 40.082C151.007 39.7461 150.924 39.3229 150.924 38.8125V35H151.846V38.75C151.846 39.1875 151.968 39.5365 152.213 39.7969C152.46 40.0573 152.775 40.1875 153.158 40.1875C153.387 40.1875 153.62 40.1289 153.857 40.0117C154.097 39.8945 154.298 39.7148 154.459 39.4727C154.623 39.2305 154.705 38.9219 154.705 38.5469ZM158.237 37.3906V41H157.315V35H158.206V35.9375H158.284C158.425 35.6328 158.638 35.388 158.925 35.2031C159.211 35.0156 159.581 34.9219 160.034 34.9219C160.44 34.9219 160.796 35.0052 161.101 35.1719C161.405 35.3359 161.642 35.5859 161.812 35.9219C161.981 36.2552 162.065 36.6771 162.065 37.1875V41H161.144V37.25C161.144 36.7786 161.021 36.4115 160.776 36.1484C160.532 35.8828 160.196 35.75 159.769 35.75C159.474 35.75 159.211 35.8138 158.979 35.9414C158.75 36.069 158.569 36.2552 158.437 36.5C158.304 36.7448 158.237 37.0417 158.237 37.3906ZM166.016 41.125C165.516 41.125 165.074 40.9987 164.691 40.7461C164.309 40.4909 164.009 40.1315 163.793 39.668C163.577 39.2018 163.469 38.651 163.469 38.0156C163.469 37.3854 163.577 36.8385 163.793 36.375C164.009 35.9115 164.31 35.5534 164.695 35.3008C165.081 35.0482 165.526 34.9219 166.031 34.9219C166.422 34.9219 166.73 34.987 166.957 35.1172C167.186 35.2448 167.361 35.3906 167.48 35.5547C167.603 35.7161 167.698 35.849 167.766 35.9531H167.844V33H168.766V41H167.875V40.0781H167.766C167.698 40.1875 167.602 40.3255 167.477 40.4922C167.352 40.6562 167.173 40.8034 166.941 40.9336C166.71 41.0612 166.401 41.125 166.016 41.125ZM166.141 40.2969C166.51 40.2969 166.823 40.2005 167.078 40.0078C167.333 39.8125 167.527 39.543 167.66 39.1992C167.793 38.8529 167.859 38.4531 167.859 38C167.859 37.5521 167.794 37.1602 167.664 36.8242C167.534 36.4857 167.341 36.2227 167.086 36.0352C166.831 35.8451 166.516 35.75 166.141 35.75C165.75 35.75 165.424 35.8503 165.164 36.0508C164.906 36.2487 164.712 36.5182 164.582 36.8594C164.454 37.1979 164.391 37.5781 164.391 38C164.391 38.4271 164.456 38.8151 164.586 39.1641C164.719 39.5104 164.914 39.7865 165.172 39.9922C165.432 40.1953 165.755 40.2969 166.141 40.2969ZM170.582 41V35H171.504V41H170.582ZM171.051 34C170.871 34 170.716 33.9388 170.586 33.8164C170.458 33.694 170.395 33.5469 170.395 33.375C170.395 33.2031 170.458 33.056 170.586 32.9336C170.716 32.8112 170.871 32.75 171.051 32.75C171.23 32.75 171.384 32.8112 171.512 32.9336C171.642 33.056 171.707 33.2031 171.707 33.375C171.707 33.5469 171.642 33.694 171.512 33.8164C171.384 33.9388 171.23 34 171.051 34ZM174.114 37.3906V41H173.192V35H174.083V35.9375H174.161C174.302 35.6328 174.515 35.388 174.802 35.2031C175.088 35.0156 175.458 34.9219 175.911 34.9219C176.317 34.9219 176.673 35.0052 176.978 35.1719C177.282 35.3359 177.519 35.5859 177.688 35.9219C177.858 36.2552 177.942 36.6771 177.942 37.1875V41H177.021V37.25C177.021 36.7786 176.898 36.4115 176.653 36.1484C176.409 35.8828 176.073 35.75 175.646 35.75C175.351 35.75 175.088 35.8138 174.856 35.9414C174.627 36.069 174.446 36.2552 174.313 36.5C174.181 36.7448 174.114 37.0417 174.114 37.3906ZM182.049 43.375C181.604 43.375 181.221 43.3177 180.9 43.2031C180.58 43.0911 180.313 42.9427 180.1 42.7578C179.889 42.5755 179.721 42.3802 179.596 42.1719L180.33 41.6563C180.413 41.7656 180.519 41.8906 180.646 42.0312C180.774 42.1745 180.949 42.2982 181.17 42.4023C181.394 42.5091 181.687 42.5625 182.049 42.5625C182.533 42.5625 182.933 42.4453 183.248 42.2109C183.563 41.9766 183.721 41.6094 183.721 41.1094V39.8906H183.643C183.575 40 183.479 40.1354 183.354 40.2969C183.231 40.4557 183.054 40.5977 182.822 40.7227C182.593 40.8451 182.283 40.9062 181.893 40.9062C181.408 40.9062 180.973 40.7917 180.588 40.5625C180.205 40.3333 179.902 40 179.678 39.5625C179.456 39.125 179.346 38.5937 179.346 37.9687C179.346 37.3542 179.454 36.819 179.67 36.3633C179.886 35.9049 180.187 35.5508 180.572 35.3008C180.958 35.0482 181.403 34.9219 181.908 34.9219C182.299 34.9219 182.609 34.987 182.838 35.1172C183.07 35.2448 183.247 35.3906 183.369 35.5547C183.494 35.7161 183.59 35.849 183.658 35.9531H183.752V35H184.643V41.1719C184.643 41.6875 184.525 42.1068 184.291 42.4297C184.059 42.7552 183.747 42.9935 183.354 43.1445C182.963 43.2982 182.528 43.375 182.049 43.375ZM182.018 40.0781C182.387 40.0781 182.7 39.9935 182.955 39.8242C183.21 39.6549 183.404 39.4115 183.537 39.0938C183.67 38.776 183.736 38.3958 183.736 37.9531C183.736 37.5208 183.671 37.1393 183.541 36.8086C183.411 36.4779 183.218 36.2187 182.963 36.0312C182.708 35.8437 182.393 35.75 182.018 35.75C181.627 35.75 181.301 35.849 181.041 36.0469C180.783 36.2448 180.589 36.5104 180.459 36.8438C180.331 37.1771 180.268 37.5469 180.268 37.9531C180.268 38.3698 180.333 38.7383 180.463 39.0586C180.596 39.3763 180.791 39.6263 181.049 39.8086C181.309 39.9883 181.632 40.0781 182.018 40.0781Z" fill="#737373"/>
<g clip-path="url(#clip0_6_68)">
<path d="M80.9514 40.384L81.0669 13.8511L18.1498 13.8806L18.1478 10.8374H85V40.3855L80.9514 40.384ZM78.9109 45.0527L74.8644 45.0496L74.9799 18.5167L12.0628 18.5478L12.0607 15.5046H78.9129L78.9109 45.0527ZM72.9495 48.1627H8V20.1687H72.9495V48.1627ZM68.8888 23.1824H12.0587V45.0527H68.8867L68.8888 23.1824ZM62.8017 42.7207C62.8017 42.9955 62.8909 43.2517 63.0064 43.497H40.4737C46.0785 43.497 50.6236 39.3204 50.6236 34.1657C50.6236 29.011 46.0785 24.8344 40.4737 24.8344H63.0043C62.8888 25.0797 62.7997 25.3359 62.7997 25.6122C62.7997 26.9009 64.1614 27.9443 65.8432 27.9443C66.2039 27.9443 66.5382 27.876 66.8584 27.7875V40.5423C66.5382 40.4554 66.2039 40.3855 65.8432 40.3855C64.1634 40.3871 62.8017 41.432 62.8017 42.7207ZM58.741 30.9269C57.0591 30.9269 55.6974 32.3181 55.6974 34.0368C55.6974 35.7556 57.0591 37.1467 58.741 37.1467C60.4228 37.1467 61.7845 35.7556 61.7845 34.0368C61.7845 32.3181 60.4228 30.9269 58.741 30.9269ZM44.7229 28.5591C44.7533 28.6042 44.7776 28.6647 44.7979 28.7392C44.8202 28.8138 44.8344 28.9085 44.8404 29.0218C44.8506 29.1352 44.8546 29.2765 44.8546 29.4457C44.8546 29.6336 44.8486 29.7935 44.8364 29.9223C44.8222 30.0528 44.7999 30.1599 44.7736 30.2437C44.7412 30.3291 44.7006 30.3912 44.6479 30.4285C44.5932 30.4673 44.5183 30.4875 44.4251 30.4875C44.3318 30.4875 44.1859 30.4425 43.9813 30.3524C43.7766 30.2608 43.5274 30.1646 43.2336 30.059C42.9398 29.9534 42.5953 29.8556 42.2062 29.7686C41.8172 29.6817 41.3917 29.6382 40.9256 29.6382C40.5609 29.6382 40.2448 29.6708 39.9753 29.7391C39.7037 29.8075 39.4768 29.9006 39.2964 30.0202C39.1161 30.1397 38.9783 30.2841 38.8912 30.4502C38.802 30.6179 38.7574 30.7965 38.7574 30.9828C38.7574 31.2623 38.8567 31.5029 39.0553 31.7079C39.2539 31.9128 39.5193 32.0929 39.8557 32.2513C40.1901 32.4112 40.569 32.5587 40.9904 32.6985C41.4119 32.8382 41.8435 32.9857 42.2832 33.1394C42.7229 33.2962 43.1546 33.4717 43.5781 33.6704C44.0016 33.8676 44.3784 34.1036 44.7067 34.3784C45.037 34.6548 45.3045 34.9777 45.5071 35.3503C45.7097 35.723 45.8111 36.1608 45.8111 36.667C45.8111 37.3268 45.6489 37.9075 45.3288 38.4044C45.0086 38.9028 44.573 39.3204 44.0218 39.6542C43.4707 39.9881 42.8303 40.238 42.0948 40.4057C42.0016 40.4275 41.9003 40.4368 41.805 40.4538V42.1524H39.8091V40.6541C39.7828 40.6541 39.7605 40.6588 39.7341 40.6588C39.1688 40.6588 38.6419 40.6231 38.1556 40.5532C37.6693 40.4833 37.2397 40.3964 36.8689 40.2986C36.4961 40.1992 36.1861 40.0936 35.9368 39.985C35.6876 39.8763 35.5072 39.78 35.3978 39.6962C35.2884 39.6123 35.2094 39.4912 35.1628 39.3328C35.1162 39.1745 35.0918 38.9447 35.0918 38.6466C35.0918 38.4463 35.0999 38.2771 35.1182 38.142C35.1344 38.0053 35.1628 37.8951 35.2013 37.8097C35.2398 37.7259 35.2904 37.6653 35.3532 37.6296C35.4161 37.5955 35.491 37.5768 35.5741 37.5768C35.6937 37.5768 35.8598 37.6296 36.0766 37.7383C36.2914 37.8439 36.569 37.9634 36.9074 38.0923C37.2458 38.2212 37.6491 38.3392 38.1192 38.4463C38.5872 38.5534 39.1323 38.6078 39.7483 38.6078C40.1536 38.6078 40.5183 38.5705 40.8385 38.496C41.1586 38.4215 41.4322 38.3159 41.6571 38.1808C41.88 38.0442 42.0502 37.8749 42.1698 37.6746C42.2893 37.4743 42.3481 37.2492 42.3481 37.0024C42.3481 36.7167 42.2447 36.4713 42.0441 36.268C41.8415 36.063 41.5781 35.8829 41.2518 35.723C40.9256 35.5631 40.5568 35.4156 40.1434 35.2774C39.7281 35.1376 39.3025 34.9901 38.8628 34.8349C38.4231 34.6796 37.9956 34.5026 37.5822 34.3054C37.1688 34.1082 36.798 33.8722 36.4738 33.5959C36.1496 33.3211 35.8841 32.995 35.6815 32.6208C35.4789 32.2451 35.3776 31.7948 35.3776 31.27C35.3776 30.6676 35.5234 30.1382 35.8152 29.6832C36.107 29.2268 36.5001 28.8479 36.9946 28.5467C37.489 28.2455 38.0726 28.0204 38.7433 27.8713C39.0877 27.7952 39.4444 27.7393 39.8111 27.7021V26.0951H41.8071V27.7021C41.8861 27.7098 41.9651 27.7067 42.0441 27.7161C42.4332 27.7611 42.7979 27.8216 43.1363 27.8993C43.4727 27.9769 43.7726 28.0623 44.034 28.1601C44.2954 28.2579 44.4696 28.3356 44.5568 28.4008C44.6358 28.4582 44.6925 28.5126 44.7229 28.5591ZM30.3259 34.1657C30.3259 39.3189 34.8689 43.497 40.4737 43.497H17.9431C18.0566 43.2517 18.1478 42.9955 18.1478 42.7207C18.1478 41.432 16.7841 40.3871 15.1043 40.3871C14.7436 40.3871 14.4092 40.457 14.0891 40.5439V27.789C14.4092 27.8775 14.7436 27.9458 15.1043 27.9458C16.7861 27.9458 18.1478 26.9025 18.1478 25.6138C18.1478 25.3374 18.0566 25.0812 17.9431 24.8359H40.4737C34.8689 24.8344 30.3259 29.0125 30.3259 34.1657ZM22.2065 30.9269C20.5247 30.9269 19.163 32.3181 19.163 34.0368C19.163 35.7556 20.5267 37.1467 22.2065 37.1467C23.8883 37.1467 25.25 35.7556 25.25 34.0368C25.25 32.3181 23.8883 30.9269 22.2065 30.9269Z" fill="white"/>
</g>
<defs>
<clipPath id="clip0_6_68">
<rect width="77" height="59" fill="white" transform="translate(8)"/>
</clipPath>
</defs>
</svg>
